<svg width="281" height="145" viewBox="0 0 281 145" fill="none" xmlns="http://www.w3.org/2000/svg">
<g clip-path="url(#clip0_468_15)">
<path d="M242.263 124.314C241.511 124.475 240.867 124.583 240.33 124.636C239.846 124.744 239.363 124.797 238.879 124.797C225.076 124.797 214.602 119.534 207.458 109.006C200.369 98.479 196.824 82.9565 196.824 62.439C196.824 41.8677 200.369 26.3184 207.458 15.791C214.602 5.26367 225.129 0 239.041 0C253.005 0 263.533 5.26367 270.623 15.791C277.766 26.3184 281.338 41.8677 281.338 62.439C281.338 76.5649 279.646 88.4082 276.262 97.9688C272.878 107.476 267.964 114.27 261.519 118.352L276.504 133.015L260.229 145.1L242.263 124.314ZM239.041 21.3501C232.971 21.3501 228.54 24.5996 225.747 31.0986C222.954 37.5439 221.558 47.9907 221.558 62.439C221.558 76.8335 222.954 87.2803 225.747 93.7793C228.54 100.225 232.971 103.447 239.041 103.447C245.164 103.447 249.622 100.225 252.415 93.7793C255.208 87.2803 256.604 76.8335 256.604 62.439C256.604 47.9907 255.208 37.5439 252.415 31.0986C249.622 24.5996 245.164 21.3501 239.041 21.3501Z" fill="white"/>
<path d="M96.9214 2.17529H125.281L139.622 54.9463L153.882 2.17529H182.402V122.461H161.938V26.1035L149.209 78.7134H130.276L117.385 26.1035V122.461H96.9214V2.17529Z" fill="white"/>
<path d="M60.8276 100.708V77.7466H44.5532V57.7661H81.6138V112.874C77.0483 116.794 71.9995 119.775 66.4673 121.816C60.9888 123.804 55.1074 124.797 48.8232 124.797C33.2471 124.797 21.2158 119.399 12.7295 108.604C4.24316 97.7539 0 82.3657 0 62.439C0 42.1899 4.27002 26.7212 12.8101 16.0327C21.4038 5.34424 33.7842 0 49.9512 0C54.7852 0 59.5386 0.698242 64.2114 2.09473C68.8843 3.4375 73.2617 5.39795 77.3438 7.97607V34.3213C74.0137 30.0244 70.1733 26.8018 65.8228 24.6533C61.5259 22.4512 56.7993 21.3501 51.6431 21.3501C42.6196 21.3501 35.8789 24.7607 31.4209 31.582C26.9629 38.3496 24.7339 48.6353 24.7339 62.439C24.7339 75.813 26.8823 85.9912 31.1792 92.9736C35.4761 99.9561 41.7334 103.447 49.9512 103.447C52.4219 103.447 54.5703 103.232 56.3965 102.803C58.2227 102.319 59.6997 101.621 60.8276 100.708Z" fill="white"/>
</g>
<defs>
<clipPath id="clip0_468_15">
<rect width="281" height="145" fill="white"/>
</clipPath>
</defs>
</svg>
